<svg xmlns="http://www.w3.org/2000/svg" xmlns:xlink="http://www.w3.org/1999/xlink" width="37" zoomAndPan="magnify" viewBox="0 0 27.75 74.999997" height="100" preserveAspectRatio="xMidYMid meet" version="1.0"><defs><clipPath id="0192c4c77c"><path d="M 0 0.335938 L 27.503906 0.335938 L 27.503906 74.664062 L 0 74.664062 Z M 0 0.335938 " clip-rule="nonzero"/></clipPath><clipPath id="10168fd40f"><path d="M 11 0.335938 L 16 0.335938 L 16 68 L 11 68 Z M 11 0.335938 " clip-rule="nonzero"/></clipPath></defs><g clip-path="url(#0192c4c77c)"><path stroke-linecap="butt" transform="matrix(0, 0.743304, -0.743304, 0, 27.502231, 0.334819)" fill="none" stroke-linejoin="miter" d="M 0.00150485 18.501501 L 99.998506 18.501501 " stroke="#000000" stroke-width="37" stroke-opacity="1" stroke-miterlimit="4"/></g><g clip-path="url(#10168fd40f)"><path fill="#ffffff" d="M 15.980469 2.566406 L 15.980469 11.484375 C 15.980469 11.78125 15.925781 12.066406 15.8125 12.335938 C 15.699219 12.609375 15.535156 12.851562 15.328125 13.0625 C 15.117188 13.269531 14.878906 13.429688 14.605469 13.542969 C 14.332031 13.65625 14.046875 13.714844 13.75 13.714844 C 13.457031 13.714844 13.171875 13.65625 12.898438 13.542969 C 12.625 13.429688 12.382812 13.269531 12.175781 13.0625 C 11.964844 12.851562 11.804688 12.609375 11.691406 12.335938 C 11.578125 12.066406 11.519531 11.78125 11.519531 11.484375 L 11.519531 2.566406 C 11.519531 2.269531 11.578125 1.984375 11.691406 1.710938 C 11.804688 1.4375 11.964844 1.195312 12.175781 0.988281 C 12.382812 0.777344 12.625 0.617188 12.898438 0.503906 C 13.171875 0.390625 13.457031 0.335938 13.75 0.335938 C 14.046875 0.335938 14.332031 0.390625 14.605469 0.503906 C 14.878906 0.617188 15.117188 0.777344 15.328125 0.988281 C 15.535156 1.195312 15.699219 1.4375 15.8125 1.710938 C 15.925781 1.984375 15.980469 2.269531 15.980469 2.566406 Z M 15.980469 20.402344 L 15.980469 29.324219 C 15.980469 29.621094 15.925781 29.902344 15.8125 30.175781 C 15.699219 30.449219 15.535156 30.691406 15.328125 30.902344 C 15.117188 31.109375 14.878906 31.269531 14.605469 31.382812 C 14.332031 31.496094 14.046875 31.554688 13.75 31.554688 C 13.457031 31.554688 13.171875 31.496094 12.898438 31.382812 C 12.625 31.269531 12.382812 31.109375 12.175781 30.902344 C 11.964844 30.691406 11.804688 30.449219 11.691406 30.175781 C 11.578125 29.902344 11.519531 29.621094 11.519531 29.324219 L 11.519531 20.402344 C 11.519531 20.109375 11.578125 19.824219 11.691406 19.550781 C 11.804688 19.277344 11.964844 19.035156 12.175781 18.828125 C 12.382812 18.617188 12.625 18.457031 12.898438 18.34375 C 13.171875 18.230469 13.457031 18.175781 13.75 18.175781 C 14.046875 18.175781 14.332031 18.230469 14.605469 18.34375 C 14.878906 18.457031 15.117188 18.617188 15.328125 18.828125 C 15.535156 19.035156 15.699219 19.277344 15.8125 19.550781 C 15.925781 19.824219 15.980469 20.109375 15.980469 20.402344 Z M 15.980469 38.242188 L 15.980469 47.164062 C 15.980469 47.457031 15.925781 47.742188 15.8125 48.015625 C 15.699219 48.289062 15.535156 48.53125 15.328125 48.738281 C 15.117188 48.949219 14.878906 49.109375 14.605469 49.222656 C 14.332031 49.335938 14.046875 49.394531 13.75 49.394531 C 13.457031 49.394531 13.171875 49.335938 12.898438 49.222656 C 12.625 49.109375 12.382812 48.949219 12.175781 48.738281 C 11.964844 48.53125 11.804688 48.289062 11.691406 48.015625 C 11.578125 47.742188 11.519531 47.457031 11.519531 47.164062 L 11.519531 38.242188 C 11.519531 37.949219 11.578125 37.664062 11.691406 37.390625 C 11.804688 37.117188 11.964844 36.875 12.175781 36.667969 C 12.382812 36.457031 12.625 36.296875 12.898438 36.183594 C 13.171875 36.070312 13.457031 36.011719 13.75 36.011719 C 14.046875 36.011719 14.332031 36.070312 14.605469 36.183594 C 14.878906 36.296875 15.117188 36.457031 15.328125 36.667969 C 15.535156 36.875 15.699219 37.117188 15.8125 37.390625 C 15.925781 37.664062 15.980469 37.949219 15.980469 38.242188 Z M 15.980469 56.082031 L 15.980469 65.003906 C 15.980469 65.296875 15.925781 65.582031 15.8125 65.855469 C 15.699219 66.128906 15.535156 66.371094 15.328125 66.578125 C 15.117188 66.789062 14.878906 66.949219 14.605469 67.0625 C 14.332031 67.175781 14.046875 67.230469 13.75 67.230469 C 13.457031 67.230469 13.171875 67.175781 12.898438 67.0625 C 12.625 66.949219 12.382812 66.789062 12.175781 66.578125 C 11.964844 66.371094 11.804688 66.128906 11.691406 65.855469 C 11.578125 65.582031 11.519531 65.296875 11.519531 65.003906 L 11.519531 56.082031 C 11.519531 55.785156 11.578125 55.503906 11.691406 55.230469 C 11.804688 54.957031 11.964844 54.714844 12.175781 54.503906 C 12.382812 54.296875 12.625 54.136719 12.898438 54.023438 C 13.171875 53.910156 13.457031 53.851562 13.75 53.851562 C 14.046875 53.851562 14.332031 53.910156 14.605469 54.023438 C 14.878906 54.136719 15.117188 54.296875 15.328125 54.503906 C 15.535156 54.714844 15.699219 54.957031 15.8125 55.230469 C 15.925781 55.503906 15.980469 55.785156 15.980469 56.082031 Z M 15.980469 56.082031 " fill-opacity="1" fill-rule="nonzero"/></g></svg>